<svg viewBox="0 0 64.01 64.01" xmlns="http://www.w3.org/2000/svg"><g id="Layer_2" data-name="Layer 2"><g id="Layer_1-2" data-name="Layer 1"><g id="Tether_USDT" data-name="Tether USDT"><path d="m63.05 39.75a32 32 0 1 1 -23.31-38.75 32 32 0 0 1 23.31 38.75z" fill="#26a17b"/><g opacity=".24"><path d="m32 64a32.21 32.21 0 0 1 -7.74-1 32 32 0 0 1 -8.73-58.42 32 32 0 1 1 16.47 59.42zm0-58a26 26 0 0 0 -25.21 19.72 26 26 0 1 0 50.44 12.58 26.07 26.07 0 0 0 -25.23-32.3z" fill="#fff"/></g><g opacity=".3"><path d="m62.09 21.13-61.68 16.01a32 32 0 0 1 61.68-16z" fill="#fff"/></g><path d="m57.22 38.3a26 26 0 1 1 -18.93-31.52 26 26 0 0 1 18.93 31.52z" fill="#26a17b"/><path d="m48 32c0-2-5.49-3.7-12.79-4.09v-3.21h9.11v-6.7h-24.91v6.7h9.11v3.23c-7.16.41-12.52 2.07-12.52 4.07s5.36 3.66 12.52 4.08v11.54h6.69v-11.53c7.3-.39 12.79-2.09 12.79-4.09zm-16 2c-7.83 0-14.18-1.21-14.18-2.71 0-1.27 4.55-2.33 10.7-2.63v3.89c1.11.06 2.28.1 3.48.1s2.19 0 3.21-.08v-3.93c6.29.28 11 1.36 11 2.64-.03 1.5-6.38 2.72-14.21 2.72z" fill="#fff"/></g></g></g></svg>